<?xml version="1.0" standalone="no"?>
<!DOCTYPE svg PUBLIC "-//W3C//DTD SVG 20010904//EN"
 "http://www.w3.org/TR/2001/REC-SVG-20010904/DTD/svg10.dtd">
<svg version="1.0" xmlns="http://www.w3.org/2000/svg"
 width="484.000000pt" height="217.000000pt" viewBox="0 0 484.000000 217.000000"
 preserveAspectRatio="xMidYMid meet">

<g transform="translate(0.000000,217.000000) scale(0.100000,-0.100000)"
fill="#000000" stroke="none">
<path d="M3952 2082 c-15 -16 -51 -72 -80 -124 l-53 -95 -147 -58 c-81 -32
-175 -70 -209 -86 -34 -16 -64 -29 -67 -29 -4 0 -61 -30 -129 -67 -67 -36
-146 -78 -175 -92 -48 -23 -52 -28 -47 -51 8 -31 33 -60 52 -60 8 0 42 19 76
42 58 40 420 228 437 228 5 0 -25 -74 -66 -165 -41 -91 -74 -171 -74 -177 0
-7 -11 -32 -25 -56 -13 -24 -29 -62 -35 -85 -6 -23 -15 -51 -20 -62 -22 -48
-42 -102 -46 -123 -3 -13 -12 -43 -20 -65 -8 -23 -22 -64 -30 -92 -8 -27 -19
-59 -24 -70 -18 -41 -38 -121 -39 -160 -1 -22 -6 -42 -11 -45 -5 -3 -7 -16 -3
-28 4 -18 8 -20 19 -11 8 6 14 17 14 23 0 6 6 23 14 37 7 15 24 58 36 95 31
97 70 195 86 219 8 11 14 28 14 39 0 10 11 43 25 72 14 28 40 90 59 136 55
134 120 275 186 403 71 136 96 173 51 74 -98 -217 -190 -592 -167 -683 8 -33
56 -63 113 -72 60 -9 117 27 188 117 60 77 65 74 35 -22 -31 -102 -97 -378
-115 -479 -14 -83 -14 -95 -1 -109 13 -13 16 -11 25 12 6 15 16 57 22 94 6 38
16 76 21 87 6 10 23 71 39 135 54 211 147 503 227 709 51 130 72 167 72 126 0
-8 25 -89 55 -179 48 -146 53 -168 43 -197 -6 -18 -16 -40 -23 -48 -21 -26
-114 -234 -121 -270 -4 -19 -13 -45 -21 -56 -8 -12 -16 -35 -19 -50 -2 -16
-11 -42 -19 -59 -16 -32 -58 -245 -51 -253 16 -15 34 17 60 104 16 55 36 110
46 124 9 14 21 37 25 50 15 51 89 218 145 330 113 225 302 508 454 682 42 48
76 92 76 98 0 6 -16 18 -35 27 l-35 17 -50 -55 c-27 -30 -49 -57 -50 -61 0 -5
-15 -25 -34 -45 -18 -21 -41 -53 -50 -70 -9 -18 -20 -33 -24 -33 -4 0 -16 -15
-26 -32 -11 -18 -34 -52 -53 -75 -18 -23 -33 -46 -33 -51 0 -5 -6 -15 -14 -21
-8 -7 -26 -36 -42 -66 -15 -30 -31 -55 -34 -55 -10 0 -44 85 -81 205 -17 55
-37 108 -44 118 -8 12 -10 29 -5 50 6 27 117 244 176 344 17 29 17 34 4 47 -8
8 -27 18 -42 21 -24 6 -29 2 -52 -44 -25 -49 -28 -51 -103 -75 -83 -26 -79
-27 -110 21 -10 15 -12 12 -12 -24 -1 -24 -2 -43 -4 -43 -1 0 -33 -9 -70 -19
l-68 -20 23 41 c13 22 40 60 60 83 41 46 39 54 -16 75 -25 9 -31 7 -54 -18z
m275 -179 c-19 -38 -38 -77 -41 -87 -8 -25 -13 -19 -29 36 -13 42 -13 46 7 61
11 9 24 17 28 17 4 0 17 9 28 20 38 38 41 20 7 -47z m-103 -109 l19 -80 -34
-70 c-18 -38 -39 -87 -45 -109 -19 -67 -73 -214 -92 -250 -47 -90 -255 -325
-302 -340 -33 -11 -42 10 -36 85 16 181 94 439 205 675 44 93 52 105 82 114
19 5 61 21 94 35 33 14 67 25 75 23 9 -1 21 -30 34 -83z"/>
<path d="M1884 2053 c-3 -21 -13 -67 -21 -103 -8 -36 -16 -84 -18 -108 -3 -23
-6 -46 -9 -51 -3 -4 -8 -22 -11 -40 -3 -17 -12 -57 -20 -88 -8 -32 -15 -65
-15 -74 0 -12 -13 -19 -47 -24 -26 -4 -60 -13 -75 -21 -15 -8 -40 -14 -55 -14
-25 0 -205 -57 -251 -78 -175 -85 -177 -86 -174 -112 1 -14 11 -33 21 -44 19
-18 20 -18 48 1 41 29 123 70 209 103 l74 28 -150 -156 c-82 -87 -162 -175
-178 -197 -47 -63 -70 -82 -172 -142 -131 -77 -200 -130 -200 -152 0 -30 36
-68 53 -56 8 6 37 26 63 45 47 33 48 33 31 7 -165 -252 -231 -432 -181 -488
35 -39 53 -43 64 -14 29 76 226 250 365 322 112 57 268 116 400 149 33 8 70
17 82 20 18 5 23 1 29 -22 4 -16 10 -31 15 -34 4 -3 9 -20 12 -39 7 -40 20
-51 64 -51 39 0 49 17 51 82 4 122 157 501 311 768 73 128 201 323 218 333 7
4 13 13 13 18 0 6 11 25 25 44 19 24 22 34 13 38 -18 6 -48 -11 -48 -27 0 -13
-49 -52 -61 -49 -13 4 -90 -117 -83 -129 4 -6 3 -8 -3 -5 -10 7 -34 -15 -47
-43 -14 -32 -89 -153 -152 -249 -53 -79 -77 -131 -180 -379 -19 -46 -34 -89
-34 -96 0 -8 -11 -38 -24 -67 -23 -53 -23 -53 -30 -24 -3 17 -4 46 -1 65 2 19
5 85 6 147 1 89 4 113 16 117 12 5 13 10 4 20 -6 7 -9 26 -7 42 3 16 13 89 22
161 l17 133 36 10 c20 5 45 16 56 24 18 13 17 14 -16 22 -19 4 -40 7 -46 5
-15 -2 -16 25 -3 82 5 23 18 85 30 137 11 52 33 133 48 178 26 82 26 84 7 98
-10 8 -34 14 -51 14 -30 0 -34 -3 -40 -37z m-108 -580 c-3 -10 -8 -52 -11 -93
-3 -41 -9 -92 -14 -114 -5 -21 -7 -44 -5 -50 3 -7 -26 -18 -80 -30 -46 -10
-140 -37 -209 -60 l-126 -42 71 78 c106 118 341 328 366 328 8 0 11 -7 8 -17z
m-40 -487 l-1 -154 -85 -17 c-139 -26 -329 -84 -418 -126 -89 -41 -178 -101
-279 -186 -55 -47 -61 -50 -51 -26 7 16 27 49 45 76 18 26 33 54 33 62 0 8 8
22 18 32 10 10 58 75 106 144 109 157 129 170 426 279 47 18 108 40 135 50 28
10 55 19 61 19 9 1 11 -43 10 -153z"/>
<path d="M1040 1933 c-169 -28 -387 -90 -512 -147 -43 -19 -58 -31 -58 -46 0
-21 45 -74 58 -68 4 2 43 22 87 44 135 70 153 68 87 -7 -21 -24 -54 -65 -73
-91 -19 -25 -61 -82 -94 -126 -91 -121 -168 -229 -187 -263 -9 -17 -23 -38
-31 -47 -21 -24 -179 -297 -226 -389 -21 -43 -51 -89 -65 -102 -33 -31 -33
-49 -1 -57 21 -5 36 2 78 37 29 24 56 49 60 56 4 7 31 28 60 47 29 19 63 46
77 59 14 13 50 41 80 62 29 21 64 50 77 66 14 16 28 28 31 26 11 -3 62 40 55
47 -3 3 2 6 12 6 9 0 36 16 59 36 52 45 56 49 110 102 13 12 28 22 34 22 6 0
17 8 24 18 7 9 30 26 50 36 21 11 63 45 94 78 30 32 60 58 65 58 21 0 179 137
263 228 11 13 40 44 63 69 23 25 45 58 48 73 13 59 -53 150 -123 170 -36 10
-151 12 -202 3z m228 -79 c25 -7 29 -33 10 -67 -39 -75 -292 -311 -558 -522
-41 -32 -104 -84 -140 -115 -36 -30 -81 -66 -99 -80 -19 -14 -50 -39 -70 -56
-124 -106 -238 -186 -202 -141 31 37 82 109 95 134 32 62 265 389 382 537 158
199 169 216 156 237 -10 16 -8 19 26 28 36 10 161 36 212 44 41 7 163 7 188 1z"/>
<path d="M3035 1711 c-78 -28 -113 -49 -205 -119 -182 -141 -348 -338 -357
-424 -4 -37 0 -48 25 -78 28 -33 33 -35 90 -34 41 1 70 8 94 22 68 41 430 160
459 150 12 -4 -187 -226 -257 -287 -21 -19 -91 -82 -154 -141 -63 -59 -204
-189 -313 -289 -223 -206 -243 -231 -192 -231 24 0 73 41 344 289 214 196 249
227 316 286 38 33 82 71 99 85 71 57 257 255 263 278 9 36 -52 92 -100 92 -50
0 -229 -53 -424 -125 -95 -36 -175 -65 -178 -65 -15 0 0 42 33 92 122 185 305
344 492 427 100 45 105 49 84 72 -21 24 -55 23 -119 0z"/>
</g>
</svg>
