<?xml version="1.0" standalone="no"?>
<!DOCTYPE svg PUBLIC "-//W3C//DTD SVG 20010904//EN"
 "http://www.w3.org/TR/2001/REC-SVG-20010904/DTD/svg10.dtd">
<svg version="1.0" xmlns="http://www.w3.org/2000/svg"
 width="512.000000pt" height="512.000000pt" viewBox="0 0 512.000000 512.000000"
 preserveAspectRatio="xMidYMid meet">

<g transform="translate(0.000000,512.000000) scale(0.100000,-0.100000)"
fill="#000000" stroke="none">
<path d="M2518 5108 c-40 -14 -285 -350 -550 -753 -524 -797 -826 -1429 -889
-1857 -18 -121 -6 -347 25 -478 89 -380 305 -695 625 -912 89 -61 268 -148
374 -182 367 -119 773 -88 1119 85 413 206 697 572 800 1030 20 89 23 131 23
289 0 168 -3 195 -28 295 -56 222 -134 428 -266 700 -230 473 -604 1072 -1028
1647 -107 145 -134 163 -205 136z m112 -370 c595 -839 974 -1503 1128 -1979
63 -193 77 -273 76 -434 -1 -211 -42 -376 -143 -571 -310 -601 -1047 -852
-1670 -568 -174 80 -370 239 -489 399 -102 137 -191 338 -229 518 -24 116 -24
345 1 452 91 397 347 917 782 1590 156 242 463 685 474 685 3 0 34 -42 70 -92z"/>
<path d="M492 1871 c-44 -27 -109 -71 -144 -99 -610 -486 -398 -1111 500
-1476 1143 -465 2953 -369 3817 203 279 184 436 405 451 636 10 142 -34 285
-130 419 -111 156 -385 366 -477 366 -44 0 -99 -56 -99 -102 0 -49 19 -70 132
-144 404 -267 473 -567 195 -847 -301 -304 -907 -515 -1702 -593 -233 -23
-707 -23 -946 0 -782 74 -1405 290 -1705 591 -91 91 -147 188 -165 289 -34
186 95 386 362 562 54 35 105 74 114 86 26 39 19 86 -19 124 -49 49 -83 46
-184 -15z"/>
</g>
</svg>
