<?xml version="1.0" standalone="no"?>
<!DOCTYPE svg PUBLIC "-//W3C//DTD SVG 20010904//EN"
 "http://www.w3.org/TR/2001/REC-SVG-20010904/DTD/svg10.dtd">
<svg version="1.0" xmlns="http://www.w3.org/2000/svg"
 width="512.000000pt" height="512.000000pt" viewBox="0 0 512.000000 512.000000"
 preserveAspectRatio="xMidYMid meet">

<g transform="translate(0.000000,512.000000) scale(0.100000,-0.100000)"
fill="#000000" stroke="none">
<path d="M2165 5097 c-25 -21 -28 -36 -68 -311 l-42 -289 -245 -103 c-135 -57
-252 -103 -260 -103 -8 -1 -125 72 -260 160 -214 140 -249 159 -275 154 -22
-4 -91 -66 -264 -240 -214 -213 -235 -237 -235 -268 0 -27 33 -84 163 -280
l164 -247 -27 -61 c-15 -34 -25 -62 -24 -63 16 -10 152 -66 154 -63 13 13 74
175 74 197 0 19 -49 102 -156 265 l-156 238 165 165 164 164 229 -150 c127
-83 241 -153 255 -157 18 -4 105 28 339 125 173 73 323 140 334 150 15 14 26
71 57 282 21 144 39 269 39 276 0 9 61 12 270 12 209 0 270 -3 270 -12 0 -7
18 -132 39 -276 31 -211 42 -268 57 -282 11 -10 161 -78 334 -150 228 -95 321
-129 338 -125 14 3 128 74 255 156 l230 151 164 -164 c89 -89 163 -166 163
-169 0 -4 -50 -92 -112 -195 -76 -129 -112 -199 -112 -219 0 -29 78 -251 95
-269 7 -8 159 39 159 49 0 2 -16 45 -36 97 -19 51 -36 100 -37 108 0 8 52 103
115 211 64 107 120 207 123 221 4 15 1 37 -5 50 -16 29 -392 411 -444 449 -21
16 -49 29 -61 29 -12 0 -131 -72 -266 -160 -134 -88 -251 -160 -259 -159 -8 0
-125 46 -260 103 l-245 103 -42 289 c-40 275 -43 290 -68 311 -26 23 -27 23
-395 23 -368 0 -369 0 -395 -23z"/>
<path d="M2266 3994 c-180 -44 -338 -207 -376 -389 -8 -37 -10 -168 -8 -407 4
-353 4 -353 31 -426 41 -114 84 -180 171 -267 135 -134 288 -197 476 -197 188
0 341 63 476 197 87 86 130 152 172 267 l26 73 4 556 3 555 -27 27 -27 27
-431 -1 c-336 0 -444 -4 -490 -15z m802 -198 c-12 -107 -93 -216 -197 -265
l-56 -26 -384 -3 -384 -3 5 44 c15 130 127 256 255 286 21 5 202 9 402 10
l364 1 -5 -44z m2 -606 c0 -151 -5 -281 -11 -312 -26 -123 -111 -245 -222
-318 -254 -166 -599 -71 -734 203 -45 91 -53 146 -53 367 l0 200 371 0 c305 0
382 3 432 16 67 17 139 51 177 83 14 11 28 20 33 21 4 0 7 -117 7 -260z"/>
<path d="M490 3226 c-139 -39 -246 -142 -296 -286 -17 -49 -19 -86 -19 -345 0
-324 4 -351 70 -464 191 -326 656 -336 865 -18 76 116 82 150 78 503 l-3 309
-32 68 c-55 115 -157 201 -278 233 -64 17 -323 17 -385 0z m352 -166 c52 -15
115 -67 146 -119 l25 -43 -114 4 c-125 4 -157 15 -217 72 -30 27 -62 75 -62
91 0 9 184 5 222 -5z m-423 -99 c-9 -27 -49 -64 -49 -46 0 19 49 89 57 82 2
-2 -2 -18 -8 -36z m195 -153 c72 -52 139 -70 279 -76 l127 -5 0 -202 c0 -225
-6 -256 -66 -338 -67 -91 -183 -144 -297 -135 -124 10 -231 86 -283 201 -27
60 -28 67 -32 268 l-4 205 55 13 c56 12 127 55 149 90 13 21 14 21 72 -21z"/>
<path d="M4219 3217 c-119 -41 -219 -138 -266 -259 -26 -65 -32 -607 -8 -698
23 -87 69 -165 141 -235 200 -197 512 -194 712 6 68 68 125 175 141 263 14 76
14 526 1 597 -30 158 -148 288 -303 334 -36 11 -95 15 -201 15 -130 0 -160 -4
-217 -23z m131 -174 c-1 -36 -30 -99 -66 -142 -51 -61 -184 -106 -184 -63 0
77 83 187 162 215 68 24 88 22 88 -10z m275 3 c83 -39 130 -100 150 -195 l7
-34 -46 6 c-107 15 -188 98 -210 215 -5 30 -4 32 22 32 15 0 50 -11 77 -24z
m-142 -280 c56 -55 155 -104 232 -114 l60 -7 3 -139 c4 -204 -21 -281 -120
-372 -161 -149 -431 -90 -527 115 -24 53 -26 66 -29 227 l-3 171 57 6 c74 8
186 62 239 116 21 23 40 41 42 41 1 0 22 -20 46 -44z"/>
<path d="M1776 1980 l-151 -149 0 -892 0 -891 28 -24 28 -24 879 0 879 0 28
24 28 24 0 891 0 892 -151 149 -150 150 -634 0 -634 0 -150 -150z m582 -103
l82 -82 -68 -68 -67 -67 -150 150 -150 150 135 0 135 0 83 -83z m224 61 l-22
-22 -22 22 -22 22 44 0 44 0 -22 -22z m383 -128 l-150 -150 -67 67 -68 68 82
82 83 83 135 0 135 0 -150 -150z m-653 -1027 c-40 -301 -76 -563 -79 -580 l-5
-33 -219 0 -219 0 0 792 0 792 42 43 43 43 254 -254 255 -255 -72 -548z m1018
180 l0 -793 -179 0 c-177 0 -179 0 -184 23 -3 12 -56 274 -117 581 l-112 559
253 253 254 254 42 -42 43 -42 0 -793z m-700 642 l64 -64 -60 -63 c-34 -35
-63 -70 -67 -78 -5 -12 -8 -11 -18 5 -7 11 -37 46 -68 78 l-55 58 64 64 c36
36 67 65 70 65 3 0 34 -29 70 -65z m-28 -1433 c-107 -1 -196 -1 -198 0 -3 4
146 1130 153 1148 3 8 58 -246 122 -565 l117 -580 -194 -3z"/>
<path d="M153 1637 l-153 -153 0 -713 0 -713 29 -29 29 -29 622 0 c426 0 628
3 642 11 47 25 48 33 48 747 0 368 -3 685 -6 703 -5 26 -39 67 -154 182 l-146
147 -379 0 -379 0 -153 -153z m615 -68 l-58 -51 27 -32 26 -31 -81 -3 -82 -3
0 -639 0 -640 -215 0 -215 0 0 623 0 622 85 85 85 85 98 -98 97 -97 60 60 59
60 -54 55 -54 55 139 0 140 -1 -57 -50z m341 -71 l81 -83 0 -622 0 -623 -210
0 -210 0 0 637 0 637 29 -28 29 -28 98 96 c55 52 100 95 100 96 1 0 38 -37 83
-82z"/>
<path d="M3910 1643 c-115 -115 -149 -156 -154 -182 -3 -18 -6 -335 -6 -703 0
-714 1 -722 48 -747 14 -8 216 -11 642 -11 l622 0 29 29 29 29 0 713 0 713
-153 153 -153 153 -379 0 -379 0 -146 -147z m610 -78 l-54 -55 29 -30 29 -30
-84 0 -84 0 29 30 29 30 -54 55 -54 55 134 0 134 0 -54 -55z m-320 -80 l94
-95 28 27 28 27 0 -637 0 -637 -210 0 -210 0 0 622 0 623 82 82 c46 46 85 83
88 83 3 0 48 -43 100 -95z m750 -692 l0 -623 -215 0 -215 0 0 635 c0 349 4
635 8 635 5 0 19 -11 32 -25 l23 -24 101 94 101 94 83 -82 82 -82 0 -622z"/>
</g>
</svg>
