<?xml version="1.0" standalone="no"?>
<!DOCTYPE svg PUBLIC "-//W3C//DTD SVG 20010904//EN"
 "http://www.w3.org/TR/2001/REC-SVG-20010904/DTD/svg10.dtd">
<svg version="1.0" xmlns="http://www.w3.org/2000/svg"
 width="512.000000pt" height="512.000000pt" viewBox="0 0 512.000000 512.000000"
 preserveAspectRatio="xMidYMid meet">

<g transform="translate(0.000000,512.000000) scale(0.100000,-0.100000)"
fill="#000000" stroke="none">
<path d="M2445 5114 c-239 -22 -411 -67 -610 -159 -360 -167 -666 -478 -829
-844 -105 -234 -147 -436 -148 -701 -1 -270 44 -467 168 -746 3 -7 -12 -20
-33 -30 -39 -20 -38 -18 -108 -189 l-17 -40 -94 345 c-52 190 -103 356 -112
369 -25 34 -64 46 -99 29 -23 -10 -52 -60 -151 -255 l-122 -243 -145 0 -145 0
0 -90 0 -90 163 0 c241 0 221 -12 324 193 l86 172 102 -374 c109 -401 114
-411 176 -411 52 0 75 35 153 230 71 179 75 185 104 188 31 3 39 -6 163 -177
53 -73 208 -328 247 -407 57 -115 75 -172 122 -399 47 -229 69 -282 145 -354
l52 -49 -21 -38 c-15 -29 -20 -56 -20 -104 2 -79 21 -127 74 -180 39 -39 39
-39 25 -74 -34 -81 -13 -184 52 -256 l43 -48 -16 -61 c-35 -137 38 -266 173
-307 36 -11 130 -14 413 -14 409 0 435 3 507 64 75 65 110 205 70 283 -16 30
-15 31 19 64 74 70 101 174 70 265 l-16 47 36 35 c75 73 100 202 56 287 l-20
39 49 44 c74 66 102 135 149 362 45 224 65 286 125 405 52 101 202 343 263
423 24 32 57 78 75 104 l32 48 143 0 c205 0 193 -8 296 197 47 92 85 166 85
163 1 -3 46 -169 100 -369 107 -391 116 -411 176 -411 56 0 69 20 151 225 l78
195 58 0 58 0 0 84 0 85 -85 3 c-138 5 -147 -1 -201 -137 -29 -75 -40 -93 -46
-79 -4 11 -46 161 -93 334 -47 173 -91 329 -99 346 -19 42 -65 61 -106 44 -27
-11 -47 -45 -153 -256 l-122 -244 -62 0 c-35 0 -63 2 -63 4 0 2 16 41 35 86
144 335 177 739 89 1085 -168 660 -714 1162 -1383 1270 -88 15 -316 26 -386
19z m350 -185 c274 -40 569 -180 779 -368 279 -251 449 -566 505 -938 23 -152
9 -427 -28 -573 -61 -234 -173 -453 -323 -630 -30 -36 -64 -83 -75 -105 -11
-22 -48 -84 -82 -138 -86 -135 -166 -294 -196 -389 -14 -43 -41 -159 -61 -256
-39 -198 -47 -222 -82 -264 -45 -53 -89 -68 -207 -68 -58 0 -105 3 -105 8 0 4
50 288 110 630 61 343 110 624 110 626 0 2 36 6 81 10 132 11 200 51 246 144
27 55 28 62 31 254 l4 197 144 3 c202 4 188 -17 192 289 4 282 -4 323 -69 394
-40 43 -123 85 -169 85 -19 0 -20 8 -20 148 0 167 -8 204 -53 264 -47 61 -114
92 -209 97 -77 3 -78 4 -78 30 0 39 -43 121 -81 158 -60 57 -97 66 -269 71
-191 5 -223 -4 -240 -67 -7 -27 -10 -344 -8 -1025 l3 -986 28 -27 c27 -27 30
-28 163 -31 96 -3 134 -7 131 -15 -2 -7 -53 -292 -113 -634 l-109 -623 -186 0
-185 0 -108 613 c-59 336 -110 622 -113 633 -5 22 -2 22 130 25 127 4 137 5
161 28 l26 24 0 1017 0 1017 -26 24 c-25 23 -30 24 -192 24 -138 0 -175 -3
-214 -18 -81 -32 -158 -136 -158 -216 0 -19 -5 -21 -62 -21 -35 0 -80 -5 -100
-10 -59 -17 -120 -69 -150 -129 -27 -53 -28 -60 -28 -212 l0 -156 -41 -7 c-85
-14 -161 -73 -198 -156 -19 -42 -21 -65 -21 -382 l0 -337 24 -28 c24 -28 24
-28 170 -31 l146 -3 0 -95 c0 -118 12 -166 55 -225 47 -65 116 -97 223 -106
45 -3 82 -10 82 -15 0 -8 205 -1173 216 -1230 l6 -28 -106 0 c-121 0 -147 8
-199 58 -44 43 -52 68 -97 296 -51 257 -102 381 -261 637 -44 70 -79 132 -79
138 0 6 -26 41 -58 78 -184 214 -306 470 -353 739 -23 138 -28 355 -9 479 104
706 662 1241 1370 1315 95 10 279 4 385 -11z m-495 -1384 l0 -895 -224 0
c-123 0 -232 3 -241 6 -40 16 -45 51 -45 324 l0 260 85 0 85 0 0 85 0 85 -142
0 c-197 -1 -198 -2 -198 -204 l0 -136 -85 0 -85 0 0 269 c0 269 0 270 23 297
21 24 33 28 105 33 128 10 126 5 132 262 5 207 5 211 29 230 17 14 39 19 82
19 l59 0 0 -85 0 -85 85 0 85 0 0 188 c0 183 1 189 23 209 31 29 42 31 140 32
l87 1 0 -895z m742 867 c18 -18 24 -38 29 -103 8 -117 16 -123 169 -127 111
-3 121 -5 144 -29 25 -24 25 -26 28 -229 4 -249 2 -245 129 -255 125 -9 123
-6 127 -239 l3 -190 -316 0 -316 0 -24 -25 c-23 -22 -25 -31 -25 -125 l0 -100
85 0 85 0 0 40 0 40 86 0 85 0 -3 -184 c-3 -179 -4 -185 -27 -210 l-24 -26
-229 0 -228 0 0 595 0 595 85 0 85 0 0 -85 0 -85 86 0 86 0 -4 146 c-3 146 -3
146 -31 170 -27 23 -35 24 -168 24 l-139 0 0 216 0 216 100 -4 c87 -3 103 -7
122 -26z m85 -3414 c29 -33 34 -53 21 -89 -20 -59 -24 -59 -586 -59 -347 0
-519 4 -541 11 -43 15 -66 60 -52 101 21 60 -2 57 592 58 l546 0 20 -22z m-82
-343 c32 -31 32 -75 1 -112 l-24 -28 -460 0 -460 0 -26 24 c-35 33 -35 83 -1
116 l24 25 461 0 461 0 24 -25z m-91 -337 c28 -25 34 -49 23 -90 -15 -56 -32
-58 -416 -58 -198 0 -361 4 -375 10 -32 12 -58 62 -50 95 3 14 18 34 31 45 25
19 42 20 394 20 367 0 368 0 393 -22z"/>
</g>
</svg>
